<?xml version="1.0" standalone="no"?><!DOCTYPE svg PUBLIC "-//W3C//DTD SVG 1.1//EN" "http://www.w3.org/Graphics/SVG/1.1/DTD/svg11.dtd"><svg t="1539413821617" class="icon" style="" viewBox="0 0 1024 1024" version="1.1" xmlns="http://www.w3.org/2000/svg" p-id="4874" xmlns:xlink="http://www.w3.org/1999/xlink" width="200" height="200"><defs><style type="text/css"></style></defs><path d="M317.303467 335.1552a31.300267 31.300267 0 0 0 0 62.600533 31.3344 31.3344 0 0 0 31.2832-31.351466 31.266133 31.266133 0 0 0-31.2832-31.249067zM567.6032 500.514133l0 0z" fill="#62B900" p-id="4875"></path><path d="M509.457067 366.455467m-31.300267 0a31.300267 31.300267 0 1 0 62.600533 0 31.300267 31.300267 0 1 0-62.600533 0Z" fill="#62B900" p-id="4876"></path><path d="M512 0C229.2224 0 0 229.2224 0 512s229.2224 512 512 512c282.760533 0 512-229.2224 512-512S794.760533 0 512 0z m-100.829867 657.0496c-33.297067 0-65.006933-5.751467-94.0544-15.991467-30.395733 17.595733-78.7456 44.4416-80.674133 45.141334-1.262933 1.536 7.4752-44.714667 14.4896-79.906134-54.9888-40.226133-90.077867-100.7104-90.077867-168.362666 0-120.968533 112.042667-219.067733 250.282667-219.067734 126.549333 0 231.1168 82.193067 247.9104 188.859734-7.441067-0.699733-14.728533-1.024-22.2208-1.024-122.197333 0-221.201067 91.0848-221.149867 203.400533 0 16.1792 2.013867 31.675733 5.888 46.779733-3.4816 0.085333-6.894933 0.170667-10.3936 0.170667z m376.2176 85.794133c6.587733 29.9008 12.680533 59.511467 11.605334 58.333867-1.536-0.4608-32.3584-16.366933-60.654934-31.488a244.6848 244.6848 0 0 1-90.2656 17.032533c-118.510933 0-214.562133-82.141867-214.562133-183.381333 0-101.188267 96.0512-183.296 214.562133-183.296 118.459733 0 214.459733 82.056533 214.459734 183.296 0.017067 55.8592-29.218133 105.728-75.144534 139.502933z" fill="#62B900" p-id="4877"></path><path d="M723.985067 500.514133a31.402667 31.402667 0 0 0-31.3344 31.3344 31.3344 31.3344 0 0 0 62.6688 0 31.402667 31.402667 0 0 0-31.3344-31.3344z" fill="#62B900" p-id="4878"></path></svg>