<?xml version="1.0" standalone="no"?><!DOCTYPE svg PUBLIC "-//W3C//DTD SVG 1.1//EN" "http://www.w3.org/Graphics/SVG/1.1/DTD/svg11.dtd"><svg t="1539413748640" class="icon" style="" viewBox="0 0 1024 1024" version="1.1" xmlns="http://www.w3.org/2000/svg" p-id="2026" xmlns:xlink="http://www.w3.org/1999/xlink" width="200" height="200"><defs><style type="text/css"></style></defs><path d="M982.366444 711.917378A505.21572 505.21572 0 0 0 1023.295312 512.389144a511.610856 511.610856 0 1 0-97.206063 299.292351c-87.613359-44.126436-232.143426-115.751956-319.756785-159.238879A393.940359 393.940359 0 0 1 427.268665 768.194572a249.410292 249.410292 0 0 1-127.902714 9.592704 169.471096 169.471096 0 0 1-90.171414-47.324005 196.97018 196.97018 0 0 1-26.85957-37.7313v3.197568a86.973846 86.973846 0 0 1-7.674162-19.824921 81.218223 81.218223 0 0 1-3.837082-17.90638v-12.790271a106.798766 106.798766 0 0 1 0-24.301516 120.228551 120.228551 0 0 1 35.173247-63.951357 205.283856 205.283856 0 0 1 152.204229-49.242545 792.357313 792.357313 0 0 1 211.678992 47.963518 713.697144 713.697144 0 0 0 41.568382-120.228551H305.121573v-33.254706h157.320338v-63.951357h-191.854071v-35.173246h191.854071v-63.951357c0-8.95319 0-16.627353 16.627353-16.627353h74.823088v83.136764h206.562883v32.615192H553.892352v63.951357h165.634014a639.51357 639.51357 0 0 1-69.067465 183.540395c115.751956 41.568382 277.548889 104.880225 331.907543 127.902714" fill="#229EDA" p-id="2027"></path><path d="M230.298485 576.340501a79.299683 79.299683 0 0 0-28.77811 41.568382 87.613359 87.613359 0 0 0 23.022488 79.939196 152.20423 152.20423 0 0 0 91.450441 38.370815 242.375643 242.375643 0 0 0 147.088121-50.521573 331.268029 331.268029 0 0 0 70.346492-69.706979A434.229714 434.229714 0 0 0 319.830385 555.236553 209.760451 209.760451 0 0 0 230.298485 576.340501" fill="#229EDA" p-id="2028"></path></svg>