<?xml version="1.0" standalone="no"?><!DOCTYPE svg PUBLIC "-//W3C//DTD SVG 1.1//EN" "http://www.w3.org/Graphics/SVG/1.1/DTD/svg11.dtd"><svg t="1539270208005" class="icon" style="" viewBox="0 0 1024 1024" version="1.1" xmlns="http://www.w3.org/2000/svg" p-id="2046" xmlns:xlink="http://www.w3.org/1999/xlink" width="200" height="200"><defs><style type="text/css"></style></defs><path d="M102.4 0h819.2c56.32 0 102.4 46.08 102.4 102.4v819.2c0 56.32-46.08 102.4-102.4 102.4H102.4c-56.32 0-102.4-46.08-102.4-102.4V102.4c0-56.32 46.08-102.4 102.4-102.4z" fill="#2295FF" p-id="2047"></path><path d="M519.68 696.32c-76.8 3.84-143.36-40.96-172.8-102.4-32-67.84-25.6-134.4 19.2-193.28 43.52-56.32 104.96-79.36 176.64-70.4 35.84 3.84 66.56 19.2 94.72 40.96 15.36 12.8 14.08 17.92-2.56 26.88-14.08 7.68-28.16 16.64-43.52 24.32-39.68 23.04-79.36 44.8-117.76 69.12-20.48 12.8-25.6 33.28-12.8 53.76 12.8 23.04 37.12 28.16 62.72 12.8 76.8-43.52 153.6-88.32 231.68-131.84 12.8-7.68 14.08-14.08 8.96-26.88-20.48-42.24-49.92-78.08-88.32-104.96-87.04-57.6-180.48-67.84-275.2-23.04-94.72 43.52-147.2 121.6-154.88 224-7.68 84.48 25.6 156.16 87.04 215.04 87.04 81.92 231.68 94.72 330.24 29.44 25.6-16.64 25.6-16.64 10.24-43.52-17.92-28.16-34.56-33.28-65.28-19.2-29.44 11.52-58.88 20.48-88.32 19.2z" fill="#FFFFFF" p-id="2048"></path><path d="M785.92 569.6c-1.28-20.48-12.8-37.12-21.76-53.76-2.56-5.12-7.68-3.84-12.8-1.28-17.92 10.24-35.84 20.48-53.76 29.44-7.68 3.84-8.96 8.96-5.12 16.64 10.24 16.64 20.48 33.28 29.44 51.2 3.84 7.68 8.96 8.96 16.64 5.12 10.24-6.4 21.76-12.8 32-20.48 11.52-6.4 16.64-15.36 15.36-26.88z" fill="#FFFFFF" p-id="2049"></path></svg>