<?xml version="1.0" standalone="no"?><!DOCTYPE svg PUBLIC "-//W3C//DTD SVG 1.1//EN" "http://www.w3.org/Graphics/SVG/1.1/DTD/svg11.dtd"><svg t="1539270836427" class="icon" style="" viewBox="0 0 1024 1024" version="1.1" xmlns="http://www.w3.org/2000/svg" p-id="3484" xmlns:xlink="http://www.w3.org/1999/xlink" width="200" height="200"><defs><style type="text/css"></style></defs><path d="M153.6 64h716.8c49.485 0 89.6 40.115 89.6 89.6v716.8c0 49.485-40.115 89.6-89.6 89.6H153.6c-49.485 0-89.6-40.115-89.6-89.6V153.6c0-49.485 40.115-89.6 89.6-89.6z" fill="#3371E3" p-id="3485"></path><path d="M512 293.526c-123.76 0-224 100.24-224 224 0 99.12 64.12 182.84 153.16 212.52 11.2 1.96 15.4-4.76 15.4-10.64 0-5.32-0.28-22.96-0.28-41.72-56.28 10.36-70.84-13.72-75.32-26.32-2.52-6.44-13.44-26.32-22.96-31.64-7.84-4.2-19.04-14.56-0.28-14.84 17.64-0.28 30.24 16.24 34.44 22.96 20.16 33.88 52.36 24.36 65.24 18.48 1.96-14.56 7.84-24.36 14.28-29.96-49.84-5.6-101.92-24.92-101.92-110.6 0-24.36 8.68-44.52 22.96-60.2-2.24-5.6-10.08-28.56 2.24-59.36 0 0 18.76-5.88 61.6 22.96 17.92-5.04 36.96-7.56 56-7.56s38.08 2.52 56 7.56c42.84-29.12 61.6-22.96 61.6-22.96 12.32 30.8 4.48 53.76 2.24 59.36 14.28 15.68 22.96 35.56 22.96 60.2 0 85.96-52.36 105-102.2 110.6 8.12 7 15.12 20.44 15.12 41.44 0 29.96-0.28 54.04-0.28 61.6 0 5.88 4.2 12.88 15.4 10.64 91.18-30.782 152.575-116.284 152.6-212.52 0-123.76-100.24-224-224-224z" fill="#FFFFFF" p-id="3486"></path></svg>