<?xml version="1.0" standalone="no"?><!DOCTYPE svg PUBLIC "-//W3C//DTD SVG 1.1//EN" "http://www.w3.org/Graphics/SVG/1.1/DTD/svg11.dtd"><svg t="1537944196518" class="icon" style="" viewBox="0 0 1024 1024" version="1.1" xmlns="http://www.w3.org/2000/svg" p-id="5003" xmlns:xlink="http://www.w3.org/1999/xlink" width="200" height="200"><defs><style type="text/css"></style></defs><path d="M864 0H160C72 0 0 72 0 160v704c0 88 72 160 160 160h704c88 0 160-72 160-160V160c0-88.8-71.2-160-160-160zM512 852.8c-188.8 0-340.8-152.8-340.8-340.8s152-340.8 340.8-340.8 340.8 152.8 340.8 340.8c0 188.8-152 340.8-340.8 340.8z" fill="#00BCB7" p-id="5004"></path><path d="M287.2 523.2h198.4c14.4 0 13.6 0 14.4-14.4 0-8-3.2-8.8-9.6-8.8h-77.6c-5.6 0-11.2 2.4-11.2-8s6.4-8 11.2-8c20 0 40-0.8 60 0 8 0 12.8-0.8 10.4-10.4v-4c2.4-6.4-1.6-8.8-8.8-8.8H408c-5.6 0-8-2.4-8-8 0-6.4 0.8-8.8 8-8.8h72c14.4 0 14.4 0 14.4-14.4 0-6.4-1.6-8.8-8.8-8.8H440c7.2-9.6 12.8-16 15.2-26.4-5.6 0-10.4 0.8-15.2 0-7.2-1.6-12 1.6-15.2 8.8-6.4 12.8-16.8 21.6-34.4 18.4h-4.8c-18.4 4-28-7.2-36-20 0-0.8-1.6-1.6-2.4-4-1.6-2.4-3.2-3.2-4.8-3.2h-23.2c4 10.4 8.8 16.8 15.2 26.4-16 0-30.4 0.8-44.8 0-8.8-0.8-11.2 2.4-10.4 9.6 1.6 14.4-1.6 12.8 12.8 12.8h72.8c5.6-0.8 8.8 0.8 8.8 8 0 8-3.2 8-8.8 8h-65.6c-7.2-0.8-8.8 2.4-8 8v7.2c-1.6 6.4 1.6 8.8 8.8 8.8h63.2c7.2 0 10.4-0.8 10.4 8s-4 8-9.6 8H288c-15.2 0-12.8-2.4-13.6 13.6 2.4 8 4 9.6 12.8 10.4z" fill="#00BCB7" p-id="5005"></path><path d="M492 600c-8-0.8-15.2-1.6-23.2-4-23.2-5.6-44.8-12.8-60-34.4H488c5.6 0 8.8-2.4 8-8v-7.2c1.6-8-2.4-9.6-9.6-9.6h-79.2c-3.2 0-8.8 2.4-8-4.8 2.4-9.6-4-10.4-10.4-9.6h-9.6c-4.8-1.6-7.2 0.8-7.2 5.6 0 8-4 8.8-10.4 8.8h-68.8c-16.8 0-16.8 0-16 17.6 0 4.8 2.4 7.2 7.2 7.2h79.2c-8 10.4-16.8 19.2-28 24-14.4 5.6-28.8 9.6-44 12.8-5.6 0.8-12.8-2.4-15.2 3.2-3.2 4.8-0.8 12-0.8 17.6-0.8 6.4 1.6 8 7.2 7.2 40.8-5.6 80-13.6 106.4-50.4 24.8 31.2 56.8 45.6 96 49.6 16 2.4 16 1.6 15.2-16.8-0.8-6.4-2.4-8.8-8-8.8zM748.8 414.4c0-7.2-0.8-9.6-8.8-9.6h-184c-8 0-8.8 3.2-8.8 9.6V612c0 6.4 0.8 8.8 8.8 8.8h174.4c14.4 0 18.4-4 18.4-18.4V414.4zM725.6 584c0 8-3.2 10.4-11.2 10.4H581.6c-6.4 0-8.8-0.8-8.8-8.8V436.8c0-5.6 2.4-8 8-8h136.8c5.6 0 8 0.8 8.8 8.8L725.6 584z" fill="#00BCB7" p-id="5006"></path><path d="M704.8 464c-4 0.8-8 0-11.2 0-4.8 0-5.6-2.4-5.6-5.6s-0.8-8 0-11.2c0.8-8.8-2.4-10.4-10.4-10.4-15.2 0-12.8-0.8-12.8 12.8v6.4c0.8 5.6-0.8 8-8 8h-62.4c-15.2 0-14.4 0-15.2 15.2 0 8 3.2 8.8 9.6 8.8h56c-13.6 20.8-30.4 35.2-49.6 48-3.2 2.4-7.2 3.2-7.2 8v25.6c29.6-19.2 56-38.4 76-68.8v47.2c0 14.4-2.4 16.8-17.6 17.6-14.4 0-14.4 0-14.4 15.2v2.4c0 4 2.4 5.6 5.6 5.6 8.8 0 18.4 0.8 26.4 0 17.6-2.4 23.2-8.8 23.2-25.6v-62.4c0-14.4-0.8-12.8 12.8-12.8h4c9.6 2.4 12.8-2.4 12-11.2 0-9.6-0.8-14.4-11.2-12.8z" fill="#00BCB7" p-id="5007"></path></svg>