<?xml version="1.0" standalone="no"?><!DOCTYPE svg PUBLIC "-//W3C//DTD SVG 1.1//EN" "http://www.w3.org/Graphics/SVG/1.1/DTD/svg11.dtd"><svg t="1539271647787" class="icon" style="" viewBox="0 0 1104 1024" version="1.1" xmlns="http://www.w3.org/2000/svg" p-id="12051" xmlns:xlink="http://www.w3.org/1999/xlink" width="215.625" height="200"><defs><style type="text/css"></style></defs><path d="M743.974844 403.339696c-0.439994-4.289941-0.977764-8.555437-1.698865-12.979821C698.447696 250.490699 691.065576 160.658608 579.343788 79.455287L390.610843 100.416108c-0.47666 0.47666-0.916654 0.977764-1.381092 1.466646l-8.249886-6.01325-56.795881-45.368261c-0.8311 0.89221-1.613311 1.796642-2.444411 2.701073l-2.713295-1.943306 2.701073 1.955528c-33.757311 38.780575-23.625229 85.273265 24.945211 111.96623-37.313928 80.213335-43.388289 187.669626-45.258263 277.269498 0.232219 2.114415 0.501104 4.155498 0.769989 6.111026a128.331558 128.331558 0 0 0 12.930933 47.384901c1.527757 3.544395 3.165512 7.101013 4.888821 10.730962l0.635547-0.256663c35.443954 61.110266 118.175032 110.218476 219.886958 100.966381h0.464438q7.027681-0.647769 14.16536-1.662199C695.917731 585.448288 729.271714 484.005247 736.164952 467.016593c3.581062-8.799878 11.574284-36.568383 7.809892-63.676897zM389.156419 101.956086l-0.232219 0.244442-5.548812-4.412162z" fill="#F7F8F9" p-id="12052"></path><path d="M725.922872 1009.700198A1247.798297 1247.798297 0 0 0 919.116866 967.998552c7.516563-2.26108 4.314385-14.055361-3.251066-11.782059a1247.798297 1247.798297 0 0 1-193.10844 41.750534c-7.761004 1.038875-4.448827 12.820934 3.251066 11.782059zM815.388301 1023.902224A1218.453147 1218.453147 0 0 0 950.894205 994.043748c7.565451-2.126637 4.351051-13.920919-3.251066-11.78206a1218.453147 1218.453147 0 0 1-135.505904 29.858476c-7.748782 1.222205-4.461049 13.028709 3.251066 11.78206zM581.507092 1006.094692l112.565109-20.215276c7.724338-1.393314 4.448827-13.163151-3.251066-11.782059l-112.56511 20.215276c-7.724338 1.393314-4.448827 13.163151 3.251067 11.782059zM792.300843 950.887678l135.66479-31.911781c7.651005-1.796642 4.412161-13.590923-3.251066-11.782059l-135.66479 31.911781c-7.651005 1.796642-4.412161 13.590923 3.251066 11.782059zM410.936118 1007.793557L774.896639 919.244782l103.99745-25.29965c7.638783-1.857752 4.399939-13.652033-3.251066-11.782059l-363.948299 88.548775-103.997451 25.29965c-7.638783 1.857752-4.399939 13.652033 3.251067 11.782059z" fill="#EAE9E8" p-id="12053"></path><path d="M254.27384 638.724218l25.507425-40.406108h516.675076l23.564118 40.406108H254.27384z" fill="#FFCB00" p-id="12054"></path><path d="M405.790633 558.327552c-36.006169 44.463829-42.056085 170.094314-21.877475 250.07543 3.483285 13.835364 7.73656 27.927392 17.02532 39.355011s24.725214 19.750838 40.198333 17.660867c20.215276-2.725518 32.840657-21.034154 40.784991-38.108362s15.302011-36.238388 32.877323-45.698257c17.880864-9.630978 43.522731-4.668824 55.524788 10.743185 9.630978 12.368718 10.290969 28.648493 16.915322 42.557189 9.875419 20.77749 38.487245 35.333956 60.645827 25.006321 11.097624-5.169928 18.33308-15.204234 23.991891-25.287428 27.14518-48.619328 45.734923-187.816291-7.626561-280.508342" fill="#977A53" p-id="12055"></path><path d="M452.833316 561.199734c-88.499887 235.201191 242.473313 241.458883 156.44228 1.319982" fill="#B79369" p-id="12056"></path><path d="M661.011548 555.308705s60.010281 5.89103 126.644915-51.870394l27.426287 29.100709s-34.40508 68.321277-125.740483 107.822953z" fill="#977A53" p-id="12057"></path><path d="M254.27384 638.724218h565.746619L776.729947 980.770598H301.903181l-47.629341-342.04638z" fill="#FEE7B1" p-id="12058"></path><path d="M443.764552 591.021544c18.418634 13.114263 45.0016 15.424231 66.817965 16.9031 27.047404 1.84553 55.207014 1.01443 81.692203-5.182151 10.009862-2.346634 20.59416-5.524368 28.636271-12.222053 3.055513-2.542187-1.332204-6.893238-4.363273-4.363273-6.709907 5.573256-15.888669 8.152109-24.187443 10.205414a214.032595 214.032595 0 0 1-35.945059 5.29215c-26.069639 1.882196-53.019267 1.222205-78.661134-4.265497-10.694297-2.273302-21.865253-5.292149-30.885128-11.720949-3.238844-2.309968-6.331024 3.043291-3.116624 5.341037z" fill="#997858" p-id="12059"></path><path d="M851.895574 526.293551l-28.110722-48.949323a1.442202 1.442202 0 0 0-0.977765-0.696657 1.417758 1.417758 0 0 0-1.222205 0.281107l-34.136194 26.558521a1.442202 1.442202 0 0 0-0.158887 2.13886l26.081861 27.377399a1.442202 1.442202 0 0 0 1.038875 0.452216h0.195553l36.128389-4.974376a1.442202 1.442202 0 0 0 1.051097-2.151081z" fill="#3A4244" p-id="12060"></path><path d="M598.899073 102.322748a37.485037 37.485037 0 0 0-4.888821-3.141068 5.512146 5.512146 0 0 0-7.076569 0.916654c-1.222205-0.146665-2.371078-0.378884-3.568839-0.562214a40.222777 40.222777 0 0 0-6.807684-7.052125 28.196277 28.196277 0 0 0 4.778823-11.427619 35.810616 35.810616 0 0 0 3.911057-22.134139c-1.442202-10.364301-6.575465-19.787504-12.515383-28.45294a58.555857 58.555857 0 0 0-4.082165-8.433216 12.087611 12.087611 0 0 1-6.404356-3.324399 46.504912 46.504912 0 0 0-5.646589-5.023264c-0.598881-0.452216-1.222205-0.867766-1.857752-1.222205l-0.806655-0.391106c-2.004417-0.941098-3.996611-1.869974-6.111027-2.627741-0.378884-0.134443-2.004417-0.635547-2.065527-0.672213l-1.78442-0.452216h-0.439994a117.722816 117.722816 0 0 0-26.546299 0.794434 18.418634 18.418634 0 0 1-2.872183 0.18333 5.609922 5.609922 0 0 1-6.685463 2.774406A8.640992 8.640992 0 0 1 501.67264 7.345173c-9.044319 0.219997-17.184207 1.30776-25.89853 4.974375-9.068763 3.813281-18.113083 7.333232-26.766297 12.099833a6.208803 6.208803 0 0 1-1.515534 2.884405c-6.331024 7.039903-12.050944 14.800906-18.027529 22.14636-3.27551 4.033278-2.444411 6.991014-3.104401 11.818725-0.525548 3.874391-2.749962 7.027681-3.56884 10.792073-0.95332 4.351051-5.12104 5.194373-8.27433 3.666616a39.477232 39.477232 0 0 0 2.982181 23.295234c3.27551 7.101013 12.222053 6.111027 15.668672 1.36887 1.222205 0.378884 2.444411 0.733323 3.727726 1.087762 2.102193 18.33308 15.778671 31.3129 32.926212 37.888365A82.364416 82.364416 0 0 0 503.322617 155.232016c13.529813 2.921071 31.337344 4.216608 44.451608-1.026652 9.777643-3.911057 7.626561-16.646436 9.472091-26.986294 0.244441-1.393314 9.997639 0.183331 10.070972-1.136651a23.014126 23.014126 0 0 0 15.766448-5.915473 17.37976 17.37976 0 0 0 13.578702-4.228831 8.555437 8.555437 0 0 0 2.236635-3.287732c3.043291-2.529965 4.094388-7.223233 0-10.327635z" fill="#F7CC63" p-id="12061"></path><path d="M660.962659 13.786195C632.57083 42.789127 617.048822 58.506687 589.023654 87.778505M645.623983 136.556719c51.772617-35.761728 55.427011-88.438777 10.18097-122.623859L589.280317 89.232929l51.002628 51.210403z" fill="#29C8ED" p-id="12062"></path><path d="M599.363511 102.554967c5.817697-3.849947 32.999544-22.525244 48.399331-44.977156a0.879988 0.879988 0 0 1 1.49109 0c3.666616 5.927696 22.14636 28.892934-17.941974 68.993491-0.317773 0.317773 0.684435 1.148873 0.317774 0.879987l-32.290665-23.380787a0.928876 0.928876 0 0 1 0.024444-1.515535z" fill="#8E5638" p-id="12063"></path><path d="M613.039989 110.927074c2.371078-1.283316 14.275358-7.993223 20.141943-15.88867a0.281107 0.281107 0 0 1 0.525549 0.134443c0.183331 2.444411-0.329995 10.547632-13.004265 21.54748a0.329995 0.329995 0 0 1-0.391106 0l-7.333231-5.255483a0.293329 0.293329 0 0 1 0.06111-0.53777z" fill="#77432C" p-id="12064"></path><path d="M334.743838 44.243551c32.999544 23.686339 50.965962 36.482829 83.611066 60.486942M371.00667 162.565248c-57.150321-26.301858-69.836812-77.561149-31.166236-119.042798l78.502248 62.674689-41.420538 59.22807z" fill="#29C8ED" p-id="12065"></path><path d="M410.679454 121.010267c-6.392134-2.786628-36.421718-16.499772-55.427011-35.969502a0.879988 0.879988 0 0 0-1.454424 0.293329c-2.615519 6.477688-16.841989 32.278442 29.565147 64.874658 0.366662 0.256663-0.47666 1.222205-0.158887 0.916654l27.768505-28.624048A0.928876 0.928876 0 0 0 410.679454 121.010267z" fill="#8E5638" p-id="12066"></path><path d="M398.68962 131.667898c-2.554409-0.855544-15.448675-5.402148-22.586354-12.222053a0.281107 0.281107 0 0 0-0.501104 0.219997c0.232219 2.444411 2.138859 10.339857 16.524216 18.980848a0.329995 0.329995 0 0 0 0.391105 0l6.269914-6.441022a0.293329 0.293329 0 0 0-0.097777-0.53777z" fill="#77432C" p-id="12067"></path><path d="M715.301908 454.672319c-3.886613-24.8841 16.951988-48.75377 41.176097-51.442622 1.222205-0.146665 2.529965-0.183331 3.788836-0.219997q-0.696657-9.679866-2.334412-19.640839c-43.816061-139.893621-51.210403-229.725711-162.919969-310.892367L406.279515 93.400649c-77.20671 77.438929-86.776578 224.983555-89.220988 342.083047 2.896627 26.167416 8.787656 44.194944 18.650853 64.275777 18.980849-8.68988 45.783811-3.348843 57.076989 14.568688 4.815489 7.638783 10.633186 14.189804 15.888669 21.486369l1.161095 1.30776c0.782211 0.745545 1.539979 1.515535 2.346634 2.248858q4.681046 4.326607 9.70431 8.249885c1.222205 0.916654 8.787656 5.976584 8.225442 5.89103 2.786628 1.527757 5.622144 2.957737 8.555437 4.241053 1.344426 0.598881 7.003236 2.517743 7.602117 2.884404q4.204386 0.916654 8.457661 1.552201c19.555285 2.933293 33.292873 17.807531 37.558369 35.676173a406.419934 406.419934 0 0 0 64.214668 2.591075 364.620512 364.620512 0 0 0 72.281222-16.854211c-0.256663-0.293329-0.525548-0.574436-0.782211-0.879988-15.632006-19.213068-10.315413-51.100404 9.594312-65.192431 15.11868-10.718741 31.594007-19.188623 47.103793-29.332928 3.776614-2.444411 7.492119-5.011042 11.085402-7.73656 1.356648-1.038875 7.039903-6.306579 7.088791-6.025472 1.698865-1.955529 3.361065-3.947723 5.084374-5.939918 0.941098-1.36887 1.564423-2.248858 1.943306-2.749962 0.8311-1.613311 1.637755-3.238844 2.371079-4.888821a49.474871 49.474871 0 0 1 3.189955-5.695477c-0.073332-0.146665-0.122221-0.329995-0.158886-0.488882z" fill="#29C8ED" p-id="12068"></path><path d="M620.898769 110.157084c-12.637603-8.27433-18.088639-11.647617-29.687367-18.418634 1.515535-2.639963 3.409953-9.912085 4.717712-15.033125a15.509785 15.509785 0 0 1-5.939917-7.333232c-4.791045-4.363273-6.954348-9.985417-4.448828-16.157555a17.428648 17.428648 0 0 1 0.403328-2.248857c-2.444411-3.177734-5.108818-6.355468-7.675449-9.716533-15.937557-21.009709-42.300526-33.133986-73.576761-31.386232-31.508453 1.49109-62.748021 19.103069-77.707814 41.31054a159.644459 159.644459 0 0 0-13.102041 22.08525c3.984389 5.658811 2.85996 7.883224-1.307759 12.319829a14.544243 14.544243 0 0 1-6.001028 7.467675c2.126637 7.932113 7.113235 20.496383 11.280955 26.607409 6.318801-5.927696 4.803267-5.255483 12.796489-11.537618 2.517743 22.708575 24.444106 45.698257 48.521551 55.964782s63.432456 5.683255 88.512109-0.427772c-2.517743-10.083194-2.73774-11.537618-5.646588-22.317469 25.409649-0.89221 44.341609-16.475328 58.861408-31.178458z" fill="#3BAFCD" p-id="12069"></path><path d="M506.940345 0.011941c-32.608438 0.41555-65.534649 18.540855-81.01999 41.554981-14.959793 22.195249-20.166388 48.179334-8.469883 72.782326 5.463258-6.111027 10.449855-8.384328 15.888669-16.60977 2.517743 22.708575 19.555285 48.63155 43.608286 58.898074s58.33586 10.584298 83.415513 4.485494c-2.3833-10.53541-3.739948-13.529813-6.111027-24.065223a79.504456 79.504456 0 0 0 57.162543-23.063014c-13.089819-7.333232-17.184207-11.268733-30.249582-16.169776 18.540855-22.305247 8.078777-50.464858-3.947723-66.231307C560.717379 9.875138 533.107761-2.43247 500.425991 0.403047" fill="#F7CC63" p-id="12070"></path><path d="M457.758803 24.456047s-37.14282 18.33308-29.785143 64.520219l8.017667-8.958765s8.970987 37.277262 24.260775 42.32497c0.012222 0-38.731687-53.887032-2.493299-97.886424zM472.669708 134.356749s15.888669 24.810768 64.630217 20.875267l-10.767629-6.991014s-30.384024 4.448827-53.862588-13.884253z" fill="#FFFFFF" p-id="12071"></path><path d="M556.354106 40.344716s13.444258 45.502704-10.217636 72.452332l16.927543-12.002057S573.098319 67.233233 556.354106 40.344716z" fill="#E0AA48" p-id="12072"></path><path d="M318.109624 443.391364c-1.222205-23.380788 0.672213-56.61255 57.614758-72.574552 76.363388-21.400815 84.539942 21.168596 162.345533 12.698713 65.326874-7.101013 91.506512-59.655842 168.175451-42.104973 76.25339 17.453092 52.848158 104.82855 45.95492 121.780538S711.953065 581.671674 571.252789 601.94806 322.570673 530.449049 318.109624 443.391364z" fill="#F7F8F9" p-id="12073"></path><path d="M532.374438 605.345791c-57.284763 0-111.575123-18.33308-153.142326-52.554829-37.216152-30.555133-59.70473-70.472359-61.709147-109.387376-0.928876-18.210859-2.872182-56.099224 58.030309-73.16121 41.322762-11.574284 62.992462-4.424383 85.945477 3.141067 20.019723 6.599909 40.736103 13.444258 76.485609 9.545424 26.399635-2.872182 46.517134-13.260928 65.999087-23.319678 29.125153-15.045347 56.636994-29.259595 102.408584-18.785295 21.938585 5.023264 37.582814 16.267553 46.517134 33.427315 16.60977 31.911781 5.512146 75.165627-0.158886 89.135434-0.305551 0.757767-0.659991 1.674421-1.075541 2.73774a209.339327 209.339327 0 0 1-43.009405 69.580149C674.675803 571.832921 628.439776 594.297054 571.313899 602.559162a273.382885 273.382885 0 0 1-38.939461 2.786629z m-117.136158-240.004459c-11.07318 0-23.820782 1.686643-39.367233 6.037695-60.022503 16.817545-58.103641 54.082585-57.186987 71.987893 1.979973 38.585022 24.309664 78.16003 61.281375 108.556276 41.347206 34.001752 95.405347 52.261499 152.409003 52.273722A271.794018 271.794018 0 0 0 571.155013 601.336957c61.183598-8.8121 141.97137-39.513898 179.407518-135.66479 0.41555-1.075541 0.782211-2.004417 1.087763-2.749962 5.622144-13.835364 16.621992-56.636994 0.207775-88.169892-8.775434-16.854211-24.162999-27.902947-45.747145-32.840657-45.356039-10.376523-72.68455 3.739948-101.61415 18.68752-19.555285 10.095416-39.758339 20.545271-66.377971 23.441898-36.006169 3.911057-56.832547-2.957737-76.998935-9.594312-14.116471-4.607714-27.768505-9.10543-45.881588-9.10543z" fill="#E5E5E5" p-id="12074"></path><path d="M508.639211 365.610218a78.22114 78.22114 0 0 0 53.593703-5.95214c7.064347-3.471063 0.867766-14.006473-6.111027-10.547632a64.862436 64.862436 0 0 1-44.207166 4.717712c-7.638783-1.869974-10.902071 9.924307-3.251066 11.78206z" fill="#2AB4D3" p-id="12075"></path><path d="M317.79185 440.189186c-1.222205-23.380788 0.672213-56.61255 57.614759-72.574552 76.363388-21.400815 84.539942 21.168596 162.345532 12.698714 65.326874-7.101013 91.506512-59.655842 168.175452-42.104974 76.25339 17.453092 52.848158 104.82855 45.95492 121.780538S711.586404 578.481718 570.886127 598.758104 322.216234 527.246871 317.79185 440.189186z" fill="#FFFFFF" p-id="12076"></path><path d="M408.992811 441.362503c-9.777643-7.198789-27.267401-12.564271-34.796185 0.818878a15.436453 15.436453 0 0 0 0 14.88646c3.128846 5.683255 9.337649 8.702102 15.497563 9.777643 5.768809 1.026652 8.249886-7.809892 2.444411-8.836544-3.886613-0.696657-7.85878-2.151081-9.777643-5.169929a5.939918 5.939918 0 0 1 0-6.441022 6.661019 6.661019 0 0 1 2.554409-2.3833 8.970987 8.970987 0 0 1 4.241053-1.051097c5.658811-0.122221 10.828739 3.067735 15.228678 6.294357 4.766601 3.495507 9.337649-4.461049 4.632158-7.91989zM686.066757 418.00616c4.143276-4.717713 14.397579-14.177582 20.77749-7.431009 5.182151 5.438814-2.065527 11.305399-7.223234 13.444259-2.297746 0.977764-2.749962 4.314385-1.649977 6.269913 1.356648 2.371078 4.008833 2.603297 6.269914 1.649977 10.633186-4.497716 18.540855-17.37976 9.472091-27.462953-10.315413-11.464286-26.19186-2.089971-34.221749 7.003236-3.874391 4.412161 2.578853 10.926516 6.477688 6.477688z" fill="#566468" p-id="12077"></path><path d="M444.041582 314.974787m-37.317964 4.133127a37.546147 37.546147 0 1 0 74.635928-8.266254 37.546147 37.546147 0 1 0-74.635928 8.266254Z" fill="#3A4244" p-id="12078"></path><path d="M393.6908 291.165692l84.992158-9.423203c5.793253-0.647769 5.866586-9.777643 0-9.16654l-84.992158 9.423203c-5.793253 0.647769-5.866586 9.777643 0 9.16654z" fill="#3A4244" p-id="12079"></path><path d="M611.62177 287.843789m-37.317964 4.133127a37.546147 37.546147 0 1 0 74.635928-8.266255 37.546147 37.546147 0 1 0-74.635928 8.266255Z" fill="#3A4244" p-id="12080"></path><path d="M571.595006 262.883861l79.858896-8.848767c5.793253-0.647769 5.866586-9.777643 0-9.16654l-79.797785 8.848767c-5.793253 0.647769-5.866586 9.777643 0 9.16654z" fill="#3A4244" p-id="12081"></path><path d="M430.542942 310.29202m-19.181336 2.124416a19.298622 19.298622 0 1 0 38.362673-4.248833 19.298622 19.298622 0 1 0-38.362673 4.248833Z" fill="#EFF8F9" p-id="12082"></path><path d="M598.94649 283.144427m-19.181337 2.124416a19.298622 19.298622 0 1 0 38.362673-4.248833 19.298622 19.298622 0 1 0-38.362673 4.248833Z" fill="#EFF8F9" p-id="12083"></path><path d="M539.41434 555.16204c19.34751-15.460897 41.836088-18.33308 65.827979-16.353107 7.834336 0.647769 7.79767-11.574284 0-12.222053-12.747601-1.063319-25.592979-1.124429-38.145028 1.686643-13.554257 3.031069-25.531869 9.630978-36.323942 18.247526-6.111027 4.888821 2.554409 13.505369 8.640991 8.640991z" fill="#C95E6C" p-id="12084"></path><path d="M414.040519 512.115969a1.564423 1.564423 0 0 0-1.332204-0.305551l-50.012641 12.344273a1.49109 1.49109 0 0 0-1.038875 0.965543 1.686643 1.686643 0 0 0 0.195553 1.478868l17.477536 26.424079a1.601089 1.601089 0 0 0 1.72331 0.696657l34.307303-8.922099a1.42998 1.42998 0 0 0 0.305551-0.12222 1.539979 1.539979 0 0 0 0.794434-1.466647L414.70051 513.338174a1.735532 1.735532 0 0 0-0.659991-1.222205z" fill="#D1D3D4" p-id="12085"></path><path d="M442.163463 625.512178l1.869975-2.749962 3.972167-1.307759c19.787504 33.806199-0.342217 64.899102-23.075237 71.425678-20.77749 5.939918-42.899407-12.038722-45.148264-25.971863" fill="#D8BC93" p-id="12086"></path><path d="M1092.670022 405.576331a261.698603 261.698603 0 0 1-27.414066 90.382084c-1.539979 2.969959-3.2144 6.025472-5.047708 9.007653C1057.543841 490.116273 1046.226219 479.116425 1030.899765 478.260882c-13.957585-0.794433-27.768505 7.748782-31.276234 21.645256-3.287732 13.016487 2.151081 28.281831 13.982029 35.126181 9.520979 5.512146 20.557493 4.962154 30.347358 0.95332C1036.448577 553.67095 1021.158788 568.777407 1005.893444 578.811713c-29.137375 19.103069-64.507997 24.859656-98.570859 27.902948-7.773226 0.696657-7.846558 12.91871 0 12.222053 37.375039-3.336621 76.351166-9.777643 107.810731-31.642896 20.093055-13.982029 40.430552-36.84949 45.050488-62.198029 14.16536-14.22647 22.403023-35.175069 29.332928-53.618147A278.882809 278.882809 0 0 0 1104.892075 405.576331c0.95332-7.79767-11.280955-7.73656-12.222053 0z m-57.79809 120.607221c-12.222053 2.749962-23.319677-4.534382-24.016334-17.343093-0.623325-11.42762 8.934321-19.200846 19.995279-18.33308 13.566479 1.051097 18.663075 13.957585 17.868641 26.045195 0 0.904432-0.146665 1.796642-0.244441 2.701074a31.679562 31.679562 0 0 1-13.554257 6.929904z" fill="#8E8C8B" p-id="12087"></path><path d="M136.734355 850.789062c-7.467674 29.039598-20.227498 71.780118-55.219237 73.332319a43.999391 43.999391 0 0 0-0.53777-20.77749c-3.141068-10.999848-11.916502-21.009709-24.089667-21.107486-11.916502-0.097776-21.13193 8.934321-20.398607 20.960821 0.611103 10.046528 6.477688 19.078625 14.507578 24.847435a43.69384 43.69384 0 0 0 13.725365 6.477688l-0.171109 0.305551c-12.393162 21.681922-37.423927 29.919586-60.205833 35.749506-7.614339 1.943306-4.387717 13.737588 3.251066 11.782059 26.204082-6.709907 54.192584-17.110874 67.979059-42.190528 0.672213-1.222205 1.295538-2.444411 1.882197-3.75217a54.595912 54.595912 0 0 0 30.494022-8.139887c24.896322-15.949779 33.63509-47.274902 40.552773-74.175641 1.967751-7.687671-9.814309-10.938738-11.769837-3.312177z m-81.31332 65.106878c-4.375495-4.094388-10.425411-14.568687-4.558826-19.628618 7.773226-6.709907 16.328663 3.27551 18.33308 10.266525a32.363997 32.363997 0 0 1 0.109998 16.426439 30.555133 30.555133 0 0 1-13.884252-7.064346z" fill="#C4C4C4" p-id="12088"></path><path d="M542.677629 726.759667a6.269913 6.269913 0 0 0 8.640991 0c2.19997-2.19997 2.505521-6.477688 0-8.640992l-15.888669-13.676477a6.269913 6.269913 0 0 0-8.640991 0c-2.19997 2.19997-2.517743 6.477688 0 8.640991zM630.933075 740.118371c-47.666007 1.698865-95.332015 3.348843-142.998022 4.64438-10.914293 0.293329-21.853031 0.647769-32.767325 0.659991a5.707699 5.707699 0 0 0-5.866586 5.463258 5.793253 5.793253 0 0 0-0.244441 2.566631l5.108819 45.490482c0.867766 7.724338 13.102041 7.822114 12.222053 0l-4.64438-41.347206c50.110418-0.268885 100.220836-2.85996 150.184589-4.595492l11.562062-0.403328c-2.444411 11.635395-5.915474 23.221901-8.897654 34.600633-1.992195 7.614339 9.777643 10.865405 11.782059 3.251066 3.666616-14.018695 8.115443-28.257387 10.400967-42.606077 0.635547-3.715504-1.503313-7.883224-5.842141-7.724338z" fill="#E8C682" p-id="12089"></path><path d="M513.955804 796.889808c4.485494-6.48991-6.111027-12.600937-10.547632-6.111027-13.224262 19.127513-31.911781 30.921795-51.271513 43.009405-6.661019 4.155498-0.525548 14.727574 6.111026 10.547632 21.327483-13.346482 41.212763-26.509633 55.708119-47.44601zM630.187529 838.567009c-21.816365-12.91871-43.510509-25.788532-53.593703-50.305971-2.957737-7.174345-14.776462-4.033278-11.782059 3.251067a88.182114 88.182114 0 0 0 23.221901 33.341761c10.902071 9.594312 23.576341 16.915322 36.018391 24.272997 6.758795 3.984389 12.906488-6.551021 6.13547-10.559854zM593.350261 911.349336q-24.774102 0.525548-49.560425 0.928876v-59.888061c10.59652-0.073332 21.180818-0.134443 31.777338-0.146664 7.85878 0 7.883224-12.222053 0-12.222053-25.666312 0-51.332623 0.378884-76.998935 0.329995-7.85878 0-7.871002 12.222053 0 12.222053 10.999848 0 21.999696 0 32.999543-0.109998v60.059169q-22.708575 0.403328-45.429371 0.855544c-7.85878 0.171109-7.883224 12.393162 0 12.222053 35.737283-0.757767 71.474567-1.222205 107.21185-2.016639 7.85878-0.183331 7.883224-12.405384 0-12.234275z" fill="#E8C682" p-id="12090"></path><path d="M417.218253 542.133332c11.146512 37.509481 41.31054 79.088906 31.068459 116.207281-2.701074 9.777643-17.110874 34.686187-41.554981 31.300678-26.155194-3.666616-38.145028-31.850671-41.554981-56.96699-3.788836-28.012946 9.22765-69.103489 20.777491-89.330986" fill="#8E714F" p-id="12091"></path><path d="M417.059366 514.450381a1.539979 1.539979 0 0 0-1.295537-0.305551l-49.975976 10.999848a1.539979 1.539979 0 0 0-0.977764 2.309968l15.583118 25.324094a1.527757 1.527757 0 0 0 1.649977 0.684435l34.307303-7.981001a1.503313 1.503313 0 0 0 0.317773-0.109998 1.539979 1.539979 0 0 0 0.879988-1.381092l0.085555-28.355164a1.539979 1.539979 0 0 0-0.574437-1.185539z" fill="#3A4244" p-id="12092"></path></svg>